<svg xmlns="http://www.w3.org/2000/svg" viewBox="0 0 32 32">
  <defs>
    <linearGradient id="g" x1="0%" y1="0%" x2="100%" y2="100%">
      <stop offset="0%" stop-color="#6366f1"/>
      <stop offset="100%" stop-color="#06b6d4"/>
    </linearGradient>
  </defs>
  <rect width="32" height="32" rx="7" fill="url(#g)"/>
  <path d="M9 19a.83.83 0 0 1-.65-1.36l8.25-8.5a.42.42 0 0 1 .72.38l-1.6 5.02A.83.83 0 0 0 16.58 15.5h5.83a.83.83 0 0 1 .65 1.36l-8.25 8.5a.42.42 0 0 1-.72-.38l1.6-5.02A.83.83 0 0 0 14.83 19z" fill="white"/>
</svg>
